mtllib tetrahedron.mtl
o tetrahedron
v -1.000000 -1.000000 -1.000000
v 1.000000 1.000000 -1.000000
v 1.000000 -1.000000 1.000000
v -1.000000 1.000000 1.000000
vt 0.333333 0.500000
vt 0.333333 1.000000
vt 0.000000 0.750000
vt 0.333333 0.500000
vt 0.000000 0.250000
vt 0.333333 0.000000
vt 0.666667 0.250000
vt 1.000000 0.000000
vt 1.000000 0.500000
vt 0.333333 0.250000
vt 0.666667 0.000000
vt 0.666667 0.500000
vn 0.5774 -0.5774 -0.5774
vn 0.5774 0.5774 0.5774
vn -0.5774 0.5774 -0.5774
vn -0.5774 -0.5774 0.5774
usemtl Material.001
s off
f 1/1/1 2/2/1 3/3/1
f 3/4/2 2/5/2 4/6/2
f 4/7/3 2/8/3 1/9/3
f 1/10/4 3/11/4 4/12/4
