<?xml version="1.0" encoding="UTF-8" standalone="no"?>
<!-- Created with Inkscape (http://www.inkscape.org/) -->

<svg
   xmlns:dc="http://purl.org/dc/elements/1.1/"
   xmlns:cc="http://creativecommons.org/ns#"
   xmlns:rdf="http://www.w3.org/1999/02/22-rdf-syntax-ns#"
   xmlns:svg="http://www.w3.org/2000/svg"
   xmlns="http://www.w3.org/2000/svg"
   xmlns:sodipodi="http://sodipodi.sourceforge.net/DTD/sodipodi-0.dtd"
   xmlns:inkscape="http://www.inkscape.org/namespaces/inkscape"
   width="178.91716mm"
   height="215.30919mm"
   viewBox="0 0 178.91717 215.30919"
   version="1.1"
   id="svg8"
   inkscape:version="0.92.4 (5da689c313, 2019-01-14)"
   sodipodi:docname="braid-logo.svg"
   inkscape:export-filename="C:\Users\drand\Documents\src\strand-braid-logos\bitmap.png"
   inkscape:export-xdpi="96"
   inkscape:export-ydpi="96">
  <defs
     id="defs2" />
  <sodipodi:namedview
     id="base"
     pagecolor="#ffffff"
     bordercolor="#666666"
     borderopacity="1.0"
     inkscape:pageopacity="0.0"
     inkscape:pageshadow="2"
     inkscape:zoom="0.85063291"
     inkscape:cx="-148.08672"
     inkscape:cy="280.4549"
     inkscape:document-units="mm"
     inkscape:current-layer="layer3"
     showgrid="false"
     inkscape:window-width="2778"
     inkscape:window-height="1491"
     inkscape:window-x="290"
     inkscape:window-y="248"
     inkscape:window-maximized="0"
     inkscape:pagecheckerboard="true"
     fit-margin-top="0"
     fit-margin-left="0"
     fit-margin-right="0"
     fit-margin-bottom="0" />
  <metadata
     id="metadata5">
    <rdf:RDF>
      <cc:Work
         rdf:about="">
        <dc:format>image/svg+xml</dc:format>
        <dc:type
           rdf:resource="http://purl.org/dc/dcmitype/StillImage" />
        <dc:title></dc:title>
      </cc:Work>
    </rdf:RDF>
  </metadata>
  <g
     inkscape:groupmode="layer"
     id="layer3"
     inkscape:label="Layer 3"
     style="display:inline">
    <path
       style="display:inline;fill:#ffffff;stroke:#6f6f6f;stroke-width:3.79999995;stroke-miterlimit:4;stroke-dasharray:none;stroke-opacity:1;fill-opacity:1"
       d="M 1.899997,1.8999906 H 137.67024 L 177.01717,38.603057 V 213.40917 H 1.899997 Z"
       id="rect3717-3-5"
       inkscape:connector-curvature="0"
       sodipodi:nodetypes="cccccc" />
  </g>
  <g
     inkscape:groupmode="layer"
     id="layer2"
     inkscape:label="Layer 2"
     style="display:inline">
    <path
       transform="translate(-31.494203,-4.7040374)"
       style="fill:none;stroke:#000000;stroke-width:3.79999995;stroke-miterlimit:4;stroke-dasharray:none;stroke-opacity:1"
       d="M 33.394203,6.6040373 H 169.16444 V 42.996057 l 39.34693,0.311045 V 218.11321 H 33.394203 Z"
       id="rect3717-3"
       inkscape:connector-curvature="0"
       sodipodi:nodetypes="ccccccc" />
  </g>
  <g
     inkscape:label="Layer 1"
     inkscape:groupmode="layer"
     id="layer1"
     transform="translate(-31.494203,-4.7040373)"
     style="display:inline">
    <g
       id="g75"
       transform="matrix(0.24313782,0,0,0.24313782,71.371816,113.40328)">
      <path
         style="fill:#ff0000;stroke-width:0.35277778"
         d="m -123.18298,309.10009 c -3.78299,-0.74614 -8.02447,-4.0553 -9.77185,-7.6239 -2.71438,-5.54349 -1.68333,-11.76183 2.68904,-16.2178 6.65561,-6.78286 17.67925,-5.18788 22.53342,3.26031 l 1.03405,1.79965 43.828337,0.0594 43.828334,0.0593 15.3580051,-15.35502 15.3580019,-15.35503 3.794224,3.80603 3.794227,3.80603 -16.5706468,16.56915 c -9.1138557,9.11304 -17.0141982,16.76044 -17.5563152,16.99422 -0.751403,0.32404 -11.863547,0.42884 -46.754164,0.44098 l -45.768493,0.0159 -0.84986,1.32291 c -3.22454,5.01939 -9.14576,7.56193 -14.94631,6.41785 z m 650.1936,-0.70144 c -2.51912,-0.49794 -5.30426,-2.10903 -7.34543,-4.24898 -1.06624,-1.11783 -1.93859,-2.20294 -1.93859,-2.41138 0,-0.26686 -8.12373,-0.37896 -27.46118,-0.37896 h -27.46117 l -1.40378,-0.79375 c -0.77205,-0.43657 -2.93408,-2.39 -4.80451,-4.34096 l -3.40081,-3.54719 3.78622,-3.77448 3.78622,-3.77447 2.60287,2.62034 2.60286,2.62035 25.13687,-0.0612 25.13686,-0.0612 0.93694,-1.97285 c 1.86048,-3.9175 6.12592,-7.06481 10.5735,-7.80179 6.90767,-1.14464 14.11072,3.57527 15.93998,10.44494 2.65299,9.96299 -6.45446,19.50415 -16.68685,17.48152 z M 422.11426,261.69462 c -10.5609,-10.56198 -19.24544,-19.33505 -19.29899,-19.49571 -0.0536,-0.16065 1.57151,-1.95534 3.61131,-3.98818 l 3.70872,-3.69608 19.48466,19.48466 19.48466,19.48466 -3.6945,3.70712 c -2.032,2.03892 -3.78446,3.70713 -3.89439,3.70713 -0.10992,0 -8.84061,-8.64162 -19.40147,-19.2036 z m -289.44463,13.71745 c -0.58208,-0.2986 -6.53605,-6.01262 -13.23103,-12.69782 L 107.26591,250.55933 H 71.684892 36.103882 l -2.709045,2.63629 -2.70904,2.6363 -3.776832,-3.78858 -3.776832,-3.78858 3.975555,-3.96428 c 2.729872,-2.72213 4.359575,-4.07441 5.201141,-4.31577 0.781201,-0.22405 15.168895,-0.34869 39.680694,-0.34375 36.858147,0.007 38.513707,0.0353 39.866217,0.66937 0.92368,0.43309 5.55359,4.81727 13.40361,12.69225 l 11.9925,12.03064 h 10.40109 10.40108 l 2.66055,-2.64495 2.66055,-2.64494 3.86748,3.87952 3.86749,3.87952 -3.68917,3.70178 c -2.02905,2.03597 -4.1934,3.94104 -4.80966,4.23347 -1.68693,0.80051 -28.37786,0.78664 -29.94163,-0.0155 z m 45.94558,-23.35691 -3.78407,-3.79583 19.57433,-19.57195 19.57433,-19.57194 3.70671,3.69412 c 2.0387,2.03176 3.70674,3.85623 3.70674,4.05439 0,0.3546 -38.45975,38.98704 -38.81277,38.98704 -0.0997,0 -1.88404,-1.70812 -3.96527,-3.79583 z m 192.77514,-41.08407 -19.4799,-19.4799 3.79444,-3.80624 3.79445,-3.80625 19.57902,19.57902 19.57903,19.57903 -3.6945,3.70712 c -2.032,2.03892 -3.78411,3.70712 -3.89357,3.70712 -0.10947,0 -8.965,-8.76595 -19.67897,-19.4799 z m -142.06034,-9.44862 -3.8675,-3.87952 3.69802,-3.74125 c 2.03391,-2.05768 4.20882,-3.96274 4.8332,-4.23347 0.93536,-0.40558 5.46933,-0.49223 25.75472,-0.49223 h 24.61952 l 11.9925,-12.03064 c 7.85005,-7.87498 12.47994,-12.25917 13.40362,-12.69225 1.30027,-0.60965 2.45036,-0.66223 14.64261,-0.66937 7.75888,-0.005 13.7384,0.13764 14.45708,0.34375 0.84155,0.24136 2.47128,1.59364 5.20114,4.31577 l 3.97556,3.96428 -3.77684,3.78858 -3.77684,3.78858 -2.70905,-2.6363 -2.70902,-2.63629 h -10.36119 -10.36119 l -12.16889,12.2061 c -6.74,6.7606 -12.67538,12.42645 -13.30413,12.7 -0.93726,0.40778 -5.42643,0.4939 -25.74499,0.4939 h -24.60977 l -2.66055,2.64494 -2.66054,2.64494 z"
         id="path79"
         inkscape:connector-curvature="0" />
      <path
         style="fill:#000000;stroke-width:0.35277778"
         d="m 6.551569,300.80151 c -1.2607573,-0.54137 -8.4666672,-7.42266 -8.4666672,-8.08524 0,-0.20096 1.6664306,-2.02614 3.7031756,-4.05596 l 3.7031756,-3.69057 2.7428227,2.72674 2.7428263,2.72673 H 21.1931 31.409298 l 12.353778,-12.32726 c 6.794574,-6.77999 12.800669,-12.49499 13.346879,-12.7 0.662964,-0.24882 9.227146,-0.37273 25.762241,-0.37273 h 24.769134 l 2.45052,-2.46945 c 1.34779,-1.35819 2.61637,-2.46944 2.81907,-2.46944 0.2027,0 1.99283,1.62983 3.97808,3.62186 l 3.60953,3.62186 -3.96862,3.92446 c -2.18273,2.15846 -4.31536,4.1005 -4.73917,4.31564 -0.54243,0.27537 -8.11493,0.39118 -25.578335,0.39118 H 61.404626 l -11.992502,12.03063 c -7.850025,7.87499 -12.479927,12.25917 -13.403609,12.69225 -1.303104,0.61098 -2.437186,0.66116 -14.816667,0.65556 -11.134945,-0.005 -13.6146904,-0.0959 -14.640279,-0.53626 z m 50.234176,-0.23593 c -0.760296,-0.43657 -2.925047,-2.38729 -4.810559,-4.33496 l -3.428203,-3.54119 3.792238,-3.78048 3.792234,-3.78047 2.629701,2.64736 2.629701,2.64737 h 60.861513 60.86151 l 15.35108,-15.3481 15.35108,-15.3481 3.87678,3.88916 3.87682,3.88916 -16.75695,16.70494 c -13.84195,13.79898 -16.96406,16.74356 -17.94757,16.92699 -0.65484,0.12214 -29.87956,0.22207 -64.94382,0.22207 H 58.168101 Z m 152.083895,0.28711 c -0.58209,-0.26346 -2.76497,-2.20459 -4.85084,-4.31361 l -3.79247,-3.83459 3.79977,-3.78801 3.79981,-3.788 2.62971,2.64736 2.62968,2.64737 h 10.4177 10.41771 l 12.16889,-12.2061 c 6.74,-6.76059 12.67538,-12.42644 13.30413,-12.7 0.93726,-0.40777 5.42643,-0.49389 25.74499,-0.49389 h 24.60978 l 2.66054,-2.64495 2.66054,-2.64494 3.86747,3.87952 3.8675,3.87952 -3.68917,3.70178 c -2.02907,2.03597 -4.1934,3.94104 -4.80967,4.23347 -0.96537,0.4581 -4.5564,0.53171 -25.93992,0.53171 h -24.81944 l -12.16889,12.2061 c -6.74,6.76059 -12.67538,12.42645 -13.30414,12.7 -1.63265,0.71032 -27.63121,0.69898 -29.20368,-0.0127 z m 51.00144,0.24939 c -0.48172,-0.0906 -2.68916,-1.95474 -5.0413,-4.25731 l -4.18441,-4.09615 3.8916,-3.8916 3.8916,-3.89161 2.745,2.7289 2.745,2.7289 h 60.84489 60.84489 l 15.35106,-15.3481 15.35109,-15.3481 3.7907,3.80251 3.7907,3.8025 -16.57039,16.57268 c -9.11373,9.11497 -17.0125,16.76396 -17.55281,16.99774 -0.75527,0.32679 -15.78558,0.41764 -65.01156,0.39293 -35.21604,-0.0177 -64.41479,-0.10465 -64.88606,-0.19329 z m 151.14024,-0.41819 c -0.77611,-0.36297 -3.0383,-2.30688 -5.02709,-4.3198 l -3.61597,-3.65986 3.87943,-3.86739 3.87942,-3.86739 2.74296,2.72688 2.74295,2.72688 h 10.21623 10.2162 l 12.35375,-12.32726 c 6.79457,-6.77999 12.80069,-12.49499 13.34689,-12.7 0.59175,-0.22209 4.26307,-0.37273 9.08403,-0.37273 h 8.09092 v 5.46805 5.46806 h -4.23333 c -3.05742,0 -4.23333,-0.1176 -4.23333,-0.42334 0,-0.32926 -0.0941,-0.32926 -0.42334,0 -0.23283,0.23284 -1.2259,0.42334 -2.2068,0.42334 h -1.78347 l -11.9925,12.03063 c -7.85005,7.87499 -12.47994,12.25917 -13.40362,12.69225 -1.30231,0.61061 -2.44464,0.66162 -14.81667,0.66162 -12.35861,0 -13.51576,-0.0515 -14.81666,-0.65994 z m -444.239445,-38.92786 -19.49182,-19.49418 3.885791,-3.87375 3.885791,-3.87374 19.48698,19.48698 19.48698,19.48698 -3.8809509,3.88095 -3.8809511,3.88095 z m 50.888501,0.10774 C 6.9957268,251.19823 -1.7722761,242.34474 -1.8240745,242.18934 c -0.051798,-0.15539 1.57473663,-1.94577 3.6145261,-3.97861 l 3.7087001,-3.69608 19.5790263,19.57902 19.579024,19.57902 -3.803277,3.79148 -3.803276,3.79149 z m 151.519904,-0.1938 -19.57407,-19.57645 3.79157,-3.79157 3.79156,-3.79156 19.58116,19.58115 19.58116,19.58115 -3.79865,3.78687 -3.79865,3.78687 z m 50.45127,0.004 -19.57384,-19.57623 3.69411,-3.70672 c 2.03175,-2.03869 3.85621,-3.70672 4.05437,-3.70672 0.19815,0 9.09031,8.73108 19.76028,19.4024 l 19.39999,19.40239 -3.88052,3.88056 -3.88055,3.88054 z m 151.69445,0 -19.57384,-19.57623 3.69411,-3.70672 c 2.03176,-2.03869 3.85622,-3.70672 4.05437,-3.70672 0.19816,0 9.09031,8.73108 19.76029,19.4024 l 19.39999,19.40239 -3.88052,3.88056 -3.88056,3.88054 L 371.326,261.674 Z m -456.849437,8.81727 v -5.46805 h 20.717399 20.717402 l 2.569333,-2.55219 2.569337,-2.55219 3.784781,3.78478 3.78478,3.78478 -3.699987,3.74323 c -2.034992,2.05878 -4.210826,3.96474 -4.835183,4.23547 -0.93151,0.4039 -5.125043,0.49223 -23.371529,0.49223 h -22.236333 z m 420.334747,4.79689 c -0.58208,-0.36769 -6.45495,-6.0821 -13.05084,-12.69868 l -11.9925,-12.03015 h -35.6247 -35.6247 l -2.74282,2.72673 -2.74281,2.72674 -3.70318,-3.69057 c -2.03676,-2.02982 -3.70318,-3.855 -3.70318,-4.05596 0,-0.69886 7.23449,-7.5576 8.54354,-8.0998 1.15362,-0.47783 5.93333,-0.54302 39.6875,-0.54129 23.93153,0.001 38.84066,0.13186 39.61064,0.34707 0.95207,0.2661 4.06068,3.17278 13.58004,12.69803 l 12.34535,12.35294 h 10.57691 10.57695 l 2.56932,-2.55219 2.56935,-2.55219 3.78477,3.78478 3.78478,3.78478 -3.7,3.74323 c -2.03497,2.05878 -4.21079,3.96474 -4.83518,4.23547 -0.90769,0.39358 -3.91241,0.49196 -14.99305,0.49091 -12.99323,-0.001 -13.92389,-0.043 -14.91619,-0.66985 z m -358.337816,-23.233 -3.788925,-3.80071 19.3147499,-19.29892 C 2.6224322,218.3411 11.401403,209.57809 11.508146,209.48217 c 0.106744,-0.0959 1.891655,1.52843 3.966472,3.6097 l 3.77239,3.78413 -19.49229598,19.48992 -19.49229302,19.48992 z m 151.696896,0.002 -3.78647,-3.79826 19.49229,-19.48992 19.49229,-19.48992 3.78649,3.79825 3.78647,3.79826 -19.49229,19.48992 -19.4923,19.48992 z m 202.13927,-0.002 -3.78408,-3.79584 19.57434,-19.57194 19.57433,-19.57194 3.70671,3.69411 c 2.0387,2.0318 3.70674,3.85627 3.70674,4.05443 0,0.3546 -38.45976,38.98704 -38.81275,38.98704 -0.0997,0 -1.88405,-1.70812 -3.96529,-3.79583 z m 50.55069,0.10323 c -2.02403,-2.03093 -3.6087,-3.77405 -3.5215,-3.8736 0.0872,-0.0995 8.88478,-8.91781 19.55017,-19.59614 l 19.3916,-19.41513 3.80598,3.79416 3.80594,3.79416 -19.49221,19.49457 c -10.7207,10.72205 -19.57493,19.49461 -19.67607,19.49461 -0.10115,0 -1.83988,-1.66167 -3.86391,-3.6926 z m 50.69336,-0.10641 -3.78545,-3.79723 3.97556,-3.96427 c 2.72987,-2.72213 4.35959,-4.07442 5.20115,-4.31578 0.7506,-0.21526 9.12219,-0.35149 21.60083,-0.35149 h 20.37524 v 5.46806 5.46805 l -2.55764,0.007 c -1.4067,0.004 -10.01236,7e-4 -19.12373,-0.007 l -16.56606,-0.0133 -2.66721,2.65157 -2.66724,2.65158 -3.78545,-3.79723 z m -517.077147,-6.96068 v -5.46805 h 8.024192 8.024192 l 15.256892,-15.25387 15.256892,-15.25387 3.885114,3.87307 3.885114,3.87307 -16.318281,16.34261 c -8.975055,8.98844 -16.746958,16.57042 -17.2709,16.84885 -0.762353,0.40514 -2.928994,0.50625 -10.847917,0.50625 h -9.895298 z m 18.520835,-17.10972 -2.450522,-2.46944 h -8.035156 -8.035157 v -5.46806 -5.46805 h 9.90097 c 6.55155,0 10.161645,0.13236 10.671529,0.39126 0.423806,0.2152 2.477177,2.07785 4.563046,4.13925 l 3.792489,3.74798 -3.78647,3.79826 c -2.08256,2.08903 -3.872812,3.79824 -3.978342,3.79824 -0.105527,0 -1.2946,-1.11125 -2.642387,-2.46944 z m 33.770283,-17.01296 -19.488385,-19.4824 3.791953,-3.80375 3.791952,-3.80374 19.579023,19.57902 19.5790233,19.57903 -3.6945079,3.70712 c -2.0319794,2.03892 -3.7791464,3.70712 -3.8825914,3.70712 -0.103445,0 -8.957857,-8.76708 -19.676467,-19.4824 z m 151.699029,-0.0122 -19.492201,-19.49457 3.798261,-3.78648 3.79825,-3.78648 19.57194,19.57433 19.57195,19.57432 -3.69412,3.70673 c -2.03176,2.0387 -3.77686,3.70672 -3.87799,3.70672 -0.10114,0 -8.95537,-8.77256 -19.67609,-19.49457 z m 50.54145,0.0942 -19.39797,-19.40037 3.87334,-3.88539 3.87334,-3.88538 19.4923,19.48992 19.49229,19.48992 -3.78406,3.79583 c -2.08124,2.08771 -3.86669,3.79583 -3.96767,3.79583 -0.10099,0 -8.9127,-8.73016 -19.58157,-19.40036 z m 151.69444,0 -19.39795,-19.40037 3.87333,-3.88539 3.87336,-3.88538 19.49227,19.48992 19.49232,19.48992 -3.78407,3.79583 c -2.08125,2.08771 -3.86669,3.79583 -3.96769,3.79583 -0.10097,0 -8.91269,-8.73016 -19.58157,-19.40036 z m -288.57464,14.0857 c -0.716799,-0.21142 -6.407804,-5.66492 -17.635031,-16.89907 L -2.0837683,191.6503 1.6118084,187.94211 c 2.0325646,-2.03951 3.8318901,-3.66276 3.998493,-3.60722 0.1666064,0.0555 7.0753926,6.88249 15.3528616,15.17102 L 36.013108,214.576 h 35.620458 35.620454 l 2.74297,-2.72689 2.74297,-2.72688 3.87942,3.86739 3.87941,3.86739 -3.61597,3.65986 c -1.98878,2.01292 -4.25097,3.95683 -5.02708,4.3198 -1.35265,0.6326 -3.01131,0.65894 -40.040278,0.63587 -21.28603,-0.0133 -39.104322,-0.16421 -39.687502,-0.33621 z m 201.7889,-0.30153 c -0.94213,-0.44186 -6.80314,-6.0663 -17.63515,-16.9233 l -16.22407,-16.26147 3.87307,-3.88512 3.87308,-3.88512 15.35109,15.3481 15.35106,15.34811 h 35.63789 35.63793 l 2.62968,-2.64738 2.62971,-2.64736 3.79991,3.78812 3.79991,3.78813 -3.969,3.98159 c -2.78772,2.79656 -4.33648,4.0839 -5.20371,4.32533 -0.76744,0.21365 -15.78769,0.34155 -39.68751,0.33796 -36.86228,-0.006 -38.51116,-0.0332 -39.86389,-0.66759 z m 202.8586,0.30417 c -0.69776,-0.20827 -6.55197,-5.81655 -17.5507,-16.81341 -9.07704,-9.0755 -16.50372,-16.66314 -16.50372,-16.86141 0,-0.19826 1.63251,-1.98743 3.62779,-3.97591 l 3.62775,-3.61543 15.33406,15.35765 15.33401,15.35765 16.58056,-0.0126 c 9.1193,-0.007 17.73149,-0.01 19.13819,-0.006 l 2.55764,0.007 v 5.46805 5.46806 l -20.5493,-0.0303 c -11.30212,-0.0167 -21.02045,-0.17095 -21.59628,-0.34282 z m -460.386418,-23.61578 -3.873069,-3.88511 16.224046,-16.26148 c 10.8320035,-10.857 16.6930327,-16.48144 17.6351611,-16.9233 1.3527441,-0.63443 3.0016205,-0.66205 39.8638919,-0.66759 23.899824,-0.004 38.920076,0.12431 39.687502,0.33796 0.867234,0.24143 2.416013,1.52878 5.203719,4.32533 l 3.969001,3.98159 -3.799914,3.78813 -3.799911,3.78813 -2.629701,-2.64737 -2.629701,-2.64737 h -35.637902 -35.6379 l -15.3510762,15.3481 -15.3510768,15.3481 z m 50.544406,0.0873 -3.769587,-3.79147 3.583754,-3.66484 c 1.971061,-2.01567 4.067358,-3.95977 4.658438,-4.32021 1.020367,-0.62224 2.331833,-0.65543 25.94741,-0.65668 l 24.872722,-10e-4 12.345336,-12.35294 c 9.519389,-9.52525 12.627969,-12.43193 13.580059,-12.69803 0.70312,-0.19652 6.89734,-0.34595 14.38702,-0.34707 11.0427,-0.002 13.36268,0.0852 14.46389,0.54129 1.30905,0.5422 8.54353,7.40094 8.54353,8.0998 0,0.20096 -1.66643,2.02614 -3.70317,4.05596 l -3.70318,3.69057 -2.74282,-2.72674 -2.74283,-2.72673 -10.39914,-0.002 -10.39914,-0.002 -12.170832,12.20225 c -6.693959,6.71123 -12.567709,12.42147 -13.052778,12.6894 -0.726077,0.40106 -5.276011,0.48936 -25.744976,0.49965 l -24.863028,0.0125 -2.660545,2.64494 -2.660547,2.64494 z m 101.150052,-0.0873 -3.87307,-3.88511 16.22404,-16.26148 c 10.83201,-10.857 16.69304,-16.48144 17.63516,-16.9233 1.29963,-0.60952 2.44588,-0.66242 14.50799,-0.66956 7.20328,-0.004 13.63266,0.0987 14.2875,0.22885 0.88713,0.17628 2.25088,1.27375 5.34998,4.30535 l 4.15935,4.06877 -3.8916,3.8916 -3.8916,3.8916 -2.745,-2.7289 -2.745,-2.7289 h -10.22127 -10.22126 l -15.35108,15.3481 -15.35107,15.3481 z m 50.53387,0.0869 -3.78643,-3.79821 16.66657,-16.6489 c 9.16662,-9.1569 17.11347,-16.81497 17.65968,-17.01795 0.66893,-0.24859 13.59842,-0.36905 39.61063,-0.36905 33.96873,0 38.77543,0.0654 39.92912,0.54325 1.30905,0.5422 8.54354,7.40094 8.54354,8.0998 0,0.20096 -1.66642,2.02614 -3.70318,4.05596 l -3.70318,3.69057 -2.74281,-2.72674 -2.74282,-2.72673 h -35.62128 -35.62128 l -15.35106,15.3481 -15.35108,15.3481 z m 151.8685,0.17408 c -1.98663,-1.99343 -3.61206,-3.78108 -3.61206,-3.97257 0,-0.19149 7.42202,-7.76892 16.49339,-16.83874 12.73164,-12.72947 16.77423,-16.57112 17.72475,-16.84373 0.72383,-0.20759 6.69858,-0.35315 14.49557,-0.35315 15.64986,0 14.09542,-0.40974 19.45711,5.1287 l 3.42822,3.54119 -3.79225,3.78048 -3.79222,3.78048 -2.62971,-2.64737 -2.62968,-2.64737 h -10.41432 -10.41428 l -15.3512,15.34824 -15.35123,15.34825 z m 50.5393,-0.261 -3.87308,-3.88511 16.22408,-16.26148 c 10.832,-10.857 16.69302,-16.48144 17.63515,-16.9233 1.34838,-0.63239 2.88928,-0.66215 34.66042,-0.66956 l 33.2493,-0.008 v 5.46805 5.46806 h -31.66032 -31.66033 l -15.35105,15.3481 -15.35109,15.3481 z m 50.55292,0.0873 -3.76107,-3.79147 3.61794,-3.75133 c 1.98988,-2.06323 4.11417,-4.00792 4.72063,-4.32153 0.97885,-0.50619 3.44099,-0.57019 21.93403,-0.57019 h 20.83142 v 5.46805 5.46806 h -19.1304 -19.1304 l -2.66054,2.64494 -2.66054,2.64494 z M -85.523437,194.64405 V 189.176 h 8.027586 8.027582 l 12.345336,-12.35294 c 9.519384,-9.52525 12.627971,-12.43193 13.580054,-12.69803 0.703965,-0.19675 6.935492,-0.34594 14.4966,-0.34707 15.667486,-0.002 14.168107,-0.39759 19.4701628,5.13274 l 3.4007886,3.5472 -3.7862159,3.77447 -3.7862165,3.77448 -2.6297,-2.64737 -2.629701,-2.64737 h -10.431174 -10.431171 l -12.155439,12.20516 c -6.685488,6.71285 -12.584113,12.42784 -13.108055,12.7 -0.749967,0.38957 -3.020141,0.49484 -10.671528,0.49484 h -9.718909 z m 18.698751,-17.28457 -2.629701,-2.64737 h -8.034525 -8.034525 v -5.46806 -5.46805 l 9.260417,0.002 c 5.09323,0.001 9.816043,0.15665 10.49514,0.34571 0.867234,0.24143 2.416013,1.52878 5.203719,4.32533 l 3.969001,3.98159 -3.799914,3.78813 -3.799911,3.78812 -2.629701,-2.64736 z"
         id="path77"
         inkscape:connector-curvature="0" />
    </g>
    <text
       xml:space="preserve"
       style="font-style:normal;font-weight:normal;font-size:9.24061203px;line-height:1.25;font-family:sans-serif;letter-spacing:0px;word-spacing:0px;fill:#000000;fill-opacity:1;stroke:none;stroke-width:0.23101529"
       x="38.220852"
       y="103.39052"
       id="text4527"><tspan
         sodipodi:role="line"
         id="tspan4525"
         x="38.220852"
         y="103.39052"
         style="font-style:normal;font-variant:normal;font-weight:normal;font-stretch:normal;font-size:44.35493851px;font-family:Arial;-inkscape-font-specification:'Arial, Normal';font-variant-ligatures:normal;font-variant-caps:normal;font-variant-numeric:normal;font-feature-settings:normal;text-align:start;writing-mode:lr-tb;text-anchor:start;stroke-width:0.23101529">BRAIDZ</tspan></text>
  </g>
</svg>
